<?xml version="1.0" standalone="no"?>
<svg xmlns:xlink="http://www.w3.org/1999/xlink" id="wave" style="transform:rotate(0deg); transition: 0.3s" viewBox="0 0 1440 400" version="1.1" xmlns="http://www.w3.org/2000/svg"><defs><linearGradient id="sw-gradient-0" x1="0" x2="0" y1="1" y2="0"><stop stop-color="rgba(230.325, 0, 0, 1)" offset="0%"/><stop stop-color="rgba(255, 255, 255, 0)" offset="100%"/></linearGradient></defs><path style="transform:translate(0, 0px); opacity:1" fill="url(#sw-gradient-0)" d="M0,360L20,300C40,240,80,120,120,80C160,40,200,80,240,86.7C280,93,320,67,360,66.7C400,67,440,93,480,146.7C520,200,560,280,600,313.3C640,347,680,333,720,300C760,267,800,213,840,193.3C880,173,920,187,960,200C1000,213,1040,227,1080,246.7C1120,267,1160,293,1200,273.3C1240,253,1280,187,1320,146.7C1360,107,1400,93,1440,120C1480,147,1520,213,1560,246.7C1600,280,1640,280,1680,240C1720,200,1760,120,1800,100C1840,80,1880,120,1920,146.7C1960,173,2000,187,2040,193.3C2080,200,2120,200,2160,193.3C2200,187,2240,173,2280,186.7C2320,200,2360,240,2400,273.3C2440,307,2480,333,2520,286.7C2560,240,2600,120,2640,106.7C2680,93,2720,187,2760,240C2800,293,2840,307,2860,313.3L2880,320L2880,400L2860,400C2840,400,2800,400,2760,400C2720,400,2680,400,2640,400C2600,400,2560,400,2520,400C2480,400,2440,400,2400,400C2360,400,2320,400,2280,400C2240,400,2200,400,2160,400C2120,400,2080,400,2040,400C2000,400,1960,400,1920,400C1880,400,1840,400,1800,400C1760,400,1720,400,1680,400C1640,400,1600,400,1560,400C1520,400,1480,400,1440,400C1400,400,1360,400,1320,400C1280,400,1240,400,1200,400C1160,400,1120,400,1080,400C1040,400,1000,400,960,400C920,400,880,400,840,400C800,400,760,400,720,400C680,400,640,400,600,400C560,400,520,400,480,400C440,400,400,400,360,400C320,400,280,400,240,400C200,400,160,400,120,400C80,400,40,400,20,400L0,400Z"/></svg>